<?xml version="1.0" encoding="iso-8859-1"?>
<!-- Generator: Adobe Illustrator 19.0.0, SVG Export Plug-In . SVG Version: 6.00 Build 0)  -->
<svg version="1.1" id="Layer_1" xmlns="http://www.w3.org/2000/svg" xmlns:xlink="http://www.w3.org/1999/xlink" x="0px" y="0px"
	 viewBox="0 0 330 330" style="enable-background:new 0 0 330 330;" xml:space="preserve">
<g id="XMLID_89_">
	<path id="XMLID_90_" d="M315,0h-60c-8.284,0-15,6.716-15,15v285h-30V90c0-8.284-6.716-15-15-15h-60c-8.284,0-15,6.716-15,15v210H90
		V165c0-8.284-6.716-15-15-15H15c-8.284,0-15,6.716-15,15v150c0,8.284,6.716,15,15,15h60h60h60h60h60c8.284,0,15-6.716,15-15V15
		C330,6.716,323.284,0,315,0z"/>
</g>
<g>
</g>
<g>
</g>
<g>
</g>
<g>
</g>
<g>
</g>
<g>
</g>
<g>
</g>
<g>
</g>
<g>
</g>
<g>
</g>
<g>
</g>
<g>
</g>
<g>
</g>
<g>
</g>
<g>
</g>
</svg>
